<svg xmlns="http://www.w3.org/2000/svg" width="10.466" height="16.357" viewBox="0 0 10.466 16.357">
  <g id="Group_11658" data-name="Group 11658" transform="translate(-1044 -1600.384)">
    <path id="fi-rr-caret-down" d="M6.205,9h8.883a.795.795,0,0,1,.556,1.359l-4.434,4.434a.795.795,0,0,1-1.128,0L5.649,10.359A.795.795,0,0,1,6.205,9Z" transform="translate(1038.586 1601.713)"/>
    <path id="fi-rr-caret-up" d="M6.205,14.442h8.883a.795.795,0,0,0,.556-1.359L11.211,8.649a.795.795,0,0,0-1.128,0L5.649,13.083a.795.795,0,0,0,.556,1.359Z" transform="translate(1038.586 1591.969)"/>
  </g>
</svg>
