<svg
  xmlns="http://www.w3.org/2000/svg"
  width="23.959"
  height="23.961"
  viewBox="0 0 23.959 23.961"
>
  <path
    id="fi-rr-phoneCall"
    d="M.946,16.739a3.1,3.1,0,0,0,0,4.378l.91,1.049c8.19,7.841,28.12-12.084,20.4-20.3l-1.15-1a3.081,3.081,0,0,0-4.327.04C16.748.937,14.9,3.344,14.9,3.344A3.1,3.1,0,0,0,14.9,7.626L16.06,9.082a12.781,12.781,0,0,1-6.931,6.945L7.664,14.862a3.1,3.1,0,0,0-4.281-.006S.977,16.708.946,16.739Zm1.376,1.454s2.393-1.841,2.424-1.872a1.1,1.1,0,0,1,1.549,0c.027.028,2.044,1.635,2.044,1.635a1,1,0,0,0,.979.152A15.009,15.009,0,0,0,18.139,9.3a1,1,0,0,0-.145-1S16.387,6.282,16.36,6.256a1.1,1.1,0,0,1,0-1.549c.031-.03,1.872-2.425,1.872-2.425a1.1,1.1,0,0,1,1.51.039l1.15,1C26.534,10.105,9.263,26.418,3.318,20.8l-.911-1.05a1.121,1.121,0,0,1-.085-1.557Z"
    transform="translate(-0.041 0.002)"
    fill="#131523"
  />
</svg>
