<svg xmlns="http://www.w3.org/2000/svg" width="24" height="24" viewBox="0 0 24 24">
    <path data-name="Path 467" d="M7 0H4a4 4 0 0 0-4 4v3a4 4 0 0 0 4 4h3a4 4 0 0 0 4-4V4a4 4 0 0 0-4-4zm2 7a2 2 0 0 1-2 2H4a2 2 0 0 1-2-2V4a2 2 0 0 1 2-2h3a2 2 0 0 1 2 2z" style="fill:#fff"/>
    <path data-name="Path 468" d="M20 0h-3a4 4 0 0 0-4 4v3a4 4 0 0 0 4 4h3a4 4 0 0 0 4-4V4a4 4 0 0 0-4-4zm2 7a2 2 0 0 1-2 2h-3a2 2 0 0 1-2-2V4a2 2 0 0 1 2-2h3a2 2 0 0 1 2 2z" style="fill:#fff"/>
    <path data-name="Path 469" d="M7 13H4a4 4 0 0 0-4 4v3a4 4 0 0 0 4 4h3a4 4 0 0 0 4-4v-3a4 4 0 0 0-4-4zm2 7a2 2 0 0 1-2 2H4a2 2 0 0 1-2-2v-3a2 2 0 0 1 2-2h3a2 2 0 0 1 2 2z" style="fill:#fff"/>
    <path data-name="Path 470" d="M20 13h-3a4 4 0 0 0-4 4v3a4 4 0 0 0 4 4h3a4 4 0 0 0 4-4v-3a4 4 0 0 0-4-4zm2 7a2 2 0 0 1-2 2h-3a2 2 0 0 1-2-2v-3a2 2 0 0 1 2-2h3a2 2 0 0 1 2 2z" style="fill:#fff"/>
</svg>
