<svg xmlns="http://www.w3.org/2000/svg" width="26.228" height="28.941" viewBox="0 0 26.228 28.941">
    <path d="M26.993 16.472 24.7 8.23a11.239 11.239 0 0 0-21.8.57l-1.77 7.977a6.029 6.029 0 0 0 5.885 7.337h1.343a6.029 6.029 0 0 0 11.816 0h1.01a6.029 6.029 0 0 0 5.809-7.642zM14.266 26.525a3.617 3.617 0 0 1-3.4-2.411h6.791a3.617 3.617 0 0 1-3.391 2.411zm9.8-6.252a3.59 3.59 0 0 1-2.883 1.427H7.015a3.617 3.617 0 0 1-3.53-4.4l1.772-7.977a8.827 8.827 0 0 1 17.121-.449l2.291 8.242a3.589 3.589 0 0 1-.605 3.157z" transform="translate(-.986 -.002)" style="fill:#676d7c"/>
</svg>
