<svg xmlns="http://www.w3.org/2000/svg" width="23.985" height="26.657" viewBox="0 0 23.985 26.657">
    <path data-name="Path 47306" d="M12.443 8a4.443 4.443 0 1 0 4.443 4.443A4.443 4.443 0 0 0 12.443 8zm0 6.664a2.221 2.221 0 1 1 2.221-2.221 2.221 2.221 0 0 1-2.221 2.221z" transform="translate(-.45 .886)" style="fill:#676d7c"/>
    <path data-name="Path 47307" d="m23.518 15.439-.493-.284a10.108 10.108 0 0 0 0-3.654l.493-.284a3.334 3.334 0 1 0-3.332-5.777l-.494.285A9.971 9.971 0 0 0 16.528 3.9v-.57a3.332 3.332 0 1 0-6.664 0v.57A9.971 9.971 0 0 0 6.7 5.73l-.5-.288a3.334 3.334 0 1 0-3.332 5.776l.493.284a10.108 10.108 0 0 0 0 3.654l-.493.284A3.334 3.334 0 0 0 6.2 21.217l.494-.285a9.971 9.971 0 0 0 3.166 1.824v.57a3.332 3.332 0 1 0 6.664 0v-.57a9.971 9.971 0 0 0 3.163-1.828l.5.287a3.334 3.334 0 1 0 3.332-5.776zm-2.83-4.194a7.828 7.828 0 0 1 0 4.165 1.111 1.111 0 0 0 .515 1.258l1.2.7a1.111 1.111 0 1 1-1.103 1.921l-1.206-.7a1.111 1.111 0 0 0-1.35.183 7.757 7.757 0 0 1-3.6 2.083 1.111 1.111 0 0 0-.834 1.076v1.392a1.111 1.111 0 0 1-2.221 0v-1.389a1.111 1.111 0 0 0-.834-1.076 7.757 7.757 0 0 1-3.6-2.087 1.111 1.111 0 0 0-1.35-.183l-1.2.7a1.111 1.111 0 1 1-1.121-1.928l1.2-.7a1.111 1.111 0 0 0 .516-1.253 7.828 7.828 0 0 1 0-4.165 1.111 1.111 0 0 0-.516-1.254l-1.2-.7a1.111 1.111 0 0 1 1.11-1.921l1.206.7a1.111 1.111 0 0 0 1.348-.179 7.757 7.757 0 0 1 3.6-2.083 1.111 1.111 0 0 0 .834-1.081V3.332a1.111 1.111 0 0 1 2.221 0v1.391A1.111 1.111 0 0 0 15.14 5.8a7.757 7.757 0 0 1 3.6 2.087 1.111 1.111 0 0 0 1.35.183l1.2-.7a1.111 1.111 0 1 1 1.117 1.93l-1.2.7a1.111 1.111 0 0 0-.514 1.254z" transform="translate(-1.203)" style="fill:#676d7c"/>
</svg>
