<svg xmlns="http://www.w3.org/2000/svg" width="36.935" height="26.162" viewBox="0 0 36.935 26.162">
    <path data-name="Path 47308" d="M1.539 3.078H35.4A1.539 1.539 0 1 0 35.4 0H1.539a1.539 1.539 0 0 0 0 3.078z"/>
    <path data-name="Path 47309" d="M35.4 7.695H1.539a1.539 1.539 0 1 0 0 3.078H35.4a1.539 1.539 0 1 0 0-3.078z"/>
    <path data-name="Path 47310" d="M35.4 23.084H1.539a1.539 1.539 0 1 0 0 3.078H35.4a1.539 1.539 0 1 0 0-3.078z"/>
    <path data-name="Path 47311" d="M35.4 15.389H1.539a1.539 1.539 0 0 0 0 3.078H35.4a1.539 1.539 0 1 0 0-3.078z"/>
</svg>
