<svg xmlns="http://www.w3.org/2000/svg" width="32.852" height="30.114" viewBox="0 0 32.852 30.114">
    <path d="M30.388 2.592a6.833 6.833 0 0 0-5.612-1.48l-5.232.95a5.475 5.475 0 0 0-3.118 1.764A5.475 5.475 0 0 0 13.3 2.062l-5.223-.95A6.844 6.844 0 0 0 0 7.844v14.774a6.844 6.844 0 0 0 5.619 6.733l8.6 1.565a12.319 12.319 0 0 0 4.4 0l8.611-1.565a6.844 6.844 0 0 0 5.612-6.733V7.844a6.821 6.821 0 0 0-2.464-5.252zM15.057 28.278c-.115-.016-.23-.036-.345-.056l-8.6-1.563a4.106 4.106 0 0 1-3.371-4.041V7.844a4.106 4.106 0 0 1 4.103-4.106 4.217 4.217 0 0 1 .739.067l5.229.958a2.738 2.738 0 0 1 2.245 2.687zm15.057-5.66a4.107 4.107 0 0 1-3.372 4.041l-8.6 1.563c-.115.021-.23.04-.345.056V7.45a2.738 2.738 0 0 1 2.248-2.694l5.23-.958a4.106 4.106 0 0 1 4.842 4.046z" transform="translate(0 -1)" style="fill:#00baba"/>
</svg>
