<svg xmlns="http://www.w3.org/2000/svg" width="53" height="53" viewBox="0 0 53 53">
    <g data-name="Group 11018" transform="translate(-1094 -537)">
        <circle data-name="Ellipse 1256" cx="26.5" cy="26.5" r="26.5" transform="translate(1094 537)" style="fill:#e5e7ec"/>
        <path data-name="Path 47239" d="M108.789 64.99c-.166-1.439.277-1.882.111-3.32s-.553-1-.719-2.435-.885-1.882-1.051-3.32c-.221-1.328-.775-1.107-1.217-2.048h-9.962c-.443 1-1.051.775-1.162 2.048-.166 1.439-.885 1.882-1.051 3.32s-.553 1-.719 2.435.277 1.882.111 3.32-.553 1-.719 2.435.664 1.051 1.439 2.048c.885 1.217.553 2.49 1.771 2.49 1.273 0 1.273-2.878 2.49-2.878 1.273 0 1.273 2.878 2.49 2.878.111 0 .221-.055.332-.055a.7.7 0 0 0 .332.055c1.273 0 1.273-2.878 2.49-2.878 1.273 0 1.273 2.878 2.49 2.878 1.273 0 .885-1.328 1.771-2.49.775-1 1.6-.609 1.439-2.048-.113-1.439-.555-.996-.666-2.435z" transform="translate(1019.597 499.118)" style="fill:#40596b"/>
        <path data-name="Path 47240" d="M188.236 292.05v3.32l-.609 1.66-1.992 5.146h-2.767l-1.992-5.146-.609-1.66.941-3.652.111-.055v-1h5.866v1z" transform="translate(936.276 274.603)" style="fill:#f8b64c"/>
        <path data-name="Path 47241" d="M148.062 25.553c-1.716 6.364-5.811 6.807-5.811 6.807s-4.1-.5-5.811-6.807c0 0-.941-.719-.166-3.486 0 0 .443-5.534 5.977-5.534 5.479 0 5.977 5.534 5.977 5.534.772 2.767-.166 3.486-.166 3.486z" transform="translate(978.276 534.515)" style="fill:#ffd15c"/>
        <path data-name="Path 47242" d="M165.292 384.533v6.641h-10.625v-6.641l.277.277a7.125 7.125 0 0 0 1.66 1.217c.055 0 .055 0 .055.055a6.16 6.16 0 0 0 .885.387 7.029 7.029 0 0 0 4.759 0 6.159 6.159 0 0 0 .885-.387.054.054 0 0 0 .055-.055 7.125 7.125 0 0 0 1.66-1.217c.168-.11.278-.222.389-.277z" transform="translate(960.548 185.607)" style="fill:#84dbff"/>
        <path data-name="Path 47243" d="M165.292 384.533v6.641h-10.625v-6.641l.277.277a7.125 7.125 0 0 0 1.66 1.217c.055 0 .055 0 .055.055a6.16 6.16 0 0 0 .885.387 7.029 7.029 0 0 0 4.759 0 6.159 6.159 0 0 0 .885-.387.054.054 0 0 0 .055-.055 7.125 7.125 0 0 0 1.66-1.217c.168-.11.278-.222.389-.277z" transform="translate(960.548 185.607)" style="fill:#ff7058"/>
        <g data-name="Group 10893">
            <path data-name="Path 47244" d="m10.072 332.427 1.937 5.146H0V333.2a2.309 2.309 0 0 1 1.217-1.992L7.692 328l1.051 1.217.5 1.384z" transform="translate(1107.191 239.207)" style="fill:#cdd6e0"/>
            <path data-name="Path 47245" d="m284.6 332.427-1.937 5.146h11.957V333.2a2.309 2.309 0 0 0-1.217-1.992L286.928 328l-1.051 1.217-.5 1.384z" transform="translate(839.189 239.207)" style="fill:#cdd6e0"/>
        </g>
        <path data-name="Path 47246" d="M184.591 403.219a.054.054 0 0 0-.055.055 6.153 6.153 0 0 1-.885.387 7.029 7.029 0 0 1-4.759 0 4.287 4.287 0 0 1-.885-.387.054.054 0 0 1-.055-.055c-.332-.166-.609-.387-.885-.553v.553a7.758 7.758 0 0 0 .885.553.054.054 0 0 1 .055.055 6.149 6.149 0 0 0 .885.387 7.029 7.029 0 0 0 4.759 0 6.145 6.145 0 0 0 .885-.387.054.054 0 0 0 .055-.055c.221-.111.443-.277.664-.387v-.553a7.06 7.06 0 0 0-.664.387z" transform="translate(939.312 168.415)" style="fill:#f2f2f2"/>
        <g data-name="Group 10894">
            <path data-name="Path 47247" d="M121.564 320.381h-1.882l-4.482-4.538 2.712-2.158-1.882-1.051.941-1.826 2.6-.941a15.016 15.016 0 0 0-.221 2.269 16.031 16.031 0 0 0 2.214 8.245z" transform="translate(997.968 256.399)" style="fill:#acb3ba"/>
            <path data-name="Path 47248" d="M276.267 320.381h1.882l4.482-4.538-2.712-2.158 1.826-1.051-.941-1.826-2.6-.941a15.016 15.016 0 0 1 .221 2.269 15.462 15.462 0 0 1-2.158 8.245z" transform="translate(845.257 256.399)" style="fill:#acb3ba"/>
        </g>
        <g data-name="Group 10895">
            <path data-name="Path 47249" d="M145.689 7.063c.443-.166.941-.332 1.383-.5a6.049 6.049 0 0 0-5.865-6.03h-.941A6.037 6.037 0 0 0 134.4 6.51c.443.166.941.332 1.383.5h9.906z" transform="translate(979.764 549.685)" style="fill:#40596b"/>
            <path data-name="Rectangle 2398" transform="translate(1114.275 555.475)" style="fill:#40596b" d="M0 0h12.562v1.826H0z"/>
        </g>
        <g data-name="Group 10896">
            <path data-name="Path 47250" d="M189.353 114.027h-.553l.553-1.494z" transform="translate(928.186 443.496)" style="fill:#ffd15c"/>
            <path data-name="Path 47251" d="M208.83 102.9H208l.83-2.1z" transform="translate(909.982 454.62)" style="fill:#ffd15c"/>
        </g>
    </g>
</svg>
