<svg id="Group_11499" data-name="Group 11499" xmlns="http://www.w3.org/2000/svg" width="35.01" height="35.01" viewBox="0 0 35.01 35.01">
  <path id="Path_27820" data-name="Path 27820" d="M6.366,0H28.645A6.365,6.365,0,0,1,35.01,6.366V28.645a6.365,6.365,0,0,1-6.365,6.365H6.366A6.365,6.365,0,0,1,0,28.645V6.366A6.366,6.366,0,0,1,6.366,0Z" fill="#00baba"/>
  <path id="fi-rr-check" d="M17.765,4.371l-11,10.995a.8.8,0,0,1-1.127,0L1.389,11.11a.8.8,0,0,0-1.127,0h0a.8.8,0,0,0,0,1.127L4.516,16.49a2.393,2.393,0,0,0,3.382,0L18.892,5.5a.8.8,0,0,0,0-1.127h0a.8.8,0,0,0-1.127,0Z" transform="translate(7.928 8.036)" fill="#fff"/>
</svg>
