<svg xmlns="http://www.w3.org/2000/svg" width="53" height="53" viewBox="0 0 53 53">
    <g data-name="Group 11017" transform="translate(-1094 -537)">
        <circle data-name="Ellipse 1256" cx="26.5" cy="26.5" r="26.5" transform="translate(1094 537)" style="fill:#e5e7ec"/>
        <path data-name="Path 47222" d="M185.317 303.556v-3.406h-8.759v3.406l4.379 3.893z" transform="translate(939.332 265.783)" style="fill:#e6af78"/>
        <path data-name="Path 47223" d="m50.3 362.456-6.021-1.417a.965.965 0 0 1-.253-.1l-4.877 2.845-4.689-2.984a.97.97 0 0 1-.443.239L28 362.456a1.946 1.946 0 0 0-1.5 1.895v3.811a.973.973 0 0 0 .973.973h23.352a.973.973 0 0 0 .973-.973v-3.811a1.946 1.946 0 0 0-1.498-1.895z" transform="translate(1081.123 208.476)" style="fill:#eff2fa"/>
        <path data-name="Path 47224" d="M176.558 300.149v3.594c5.517 1.988 8.759-2.987 8.759-2.987v-.607h-8.759z" transform="translate(939.332 265.784)" style="fill:#d29b6e"/>
        <path data-name="Path 47225" d="m141.249 97.127.424 9.329a2.92 2.92 0 0 0 1.165 2.2l2.012 1.509a2.92 2.92 0 0 0 1.752.584h1.946a2.92 2.92 0 0 0 1.752-.584l2.012-1.509a2.92 2.92 0 0 0 1.165-2.2l.424-9.329z" transform="translate(972.695 457.614)" style="fill:#f0c087"/>
        <path data-name="Path 47226" d="M146.115 99.072c1.946 0 4.866-.487 5.558-1.946h-10.424l.424 9.329a2.92 2.92 0 0 0 1.165 2.2l2.012 1.509a2.92 2.92 0 0 0 1.752.584h.973c-.973 0-2.92-1.946-2.92-4.379v-5.839a1.554 1.554 0 0 1 1.46-1.458z" transform="translate(972.695 457.615)" style="fill:#e6af78"/>
        <g data-name="Group 10891">
            <path data-name="Path 47227" d="m30.07 406.164-3.153-2.832a1.943 1.943 0 0 0-.419 1.206v3.811a.973.973 0 0 0 .973.973h3.406v-1.348a2.433 2.433 0 0 0-.807-1.81z" transform="translate(1081.12 168.289)" style="fill:#e4eaf6"/>
            <path data-name="Path 47228" d="m406.87 406.164 3.153-2.832a1.943 1.943 0 0 1 .419 1.206v3.811a.973.973 0 0 1-.973.973h-3.406v-1.348a2.433 2.433 0 0 1 .807-1.81z" transform="translate(722.479 168.289)" style="fill:#e4eaf6"/>
        </g>
        <path data-name="Path 47229" d="M236.367 436.935h-2.433l.3-4.379h1.825z" transform="translate(885.119 140.676)" style="fill:#5b5d6e"/>
        <path data-name="Path 47230" d="M236.367 414.9h-2.433v.916a.544.544 0 0 0 .544.544h1.345a.544.544 0 0 0 .544-.544v-.916z" transform="translate(885.119 157.356)" style="fill:#515262"/>
        <g data-name="Group 10892">
            <path data-name="Path 47231" d="m151.469 340.145 4.448 4a16.784 16.784 0 0 0-2.783 1.9.624.624 0 0 1-.967-.219l-2.09-4.6.661-.992a.487.487 0 0 1 .731-.089z" transform="translate(964.352 228.11)" style="fill:#e4eaf6"/>
            <path data-name="Path 47232" d="m260.45 340.145-4.448 4a16.784 16.784 0 0 1 2.783 1.9.624.624 0 0 0 .967-.219l2.09-4.6-.661-.992a.487.487 0 0 0-.731-.089z" transform="translate(864.267 228.11)" style="fill:#e4eaf6"/>
        </g>
        <path data-name="Path 47233" d="m309.516 33.465.456 3.224c2.082.416 2.382 3.684 2.426 4.618a.959.959 0 0 0 .154.475l.794 1.232a4.662 4.662 0 0 1 .973-3.406s.428-8.089-4.803-6.143z" transform="translate(813.703 518.052)" style="fill:#785550"/>
        <path data-name="Path 47234" d="m353.8 186.649-.549 2.2a.585.585 0 0 1-.568.443.585.585 0 0 1-.581-.512l-.281-2.247a1.008 1.008 0 0 1 1-1.133 1.008 1.008 0 0 1 .979 1.249z" transform="translate(773.733 374.21)" style="fill:#f0c087"/>
        <path data-name="Path 47235" d="m115.921 1.259.72.492C113.387 4.154 114 8.275 114 8.275c.973.973.973 3.406.973 3.406l.973-.973s-.376-2.811 1.46-3.893c1.7-1 3.193-.487 4.714-.487 4.075 0 5.216-1.536 5.018-3.406-.1-.968-1.582-2.984-5.353-2.92a16.383 16.383 0 0 0-5.864 1.257z" transform="translate(998.488 549.386)" style="fill:#694b4b"/>
        <path data-name="Path 47236" d="M115.637 35.9a5.345 5.345 0 0 1 1-4.151c-3.254 2.4-2.646 6.523-2.646 6.523.973.973.973 3.406.973 3.406l.973-.973s-.376-2.811 1.46-3.893c1.7-1 3.193-.487 4.714-.487a11.955 11.955 0 0 0 1.755-.12c-3.134.108-4.984-2.269-8.229-.305z" transform="translate(998.488 519.386)" style="fill:#5a4146"/>
        <path data-name="Path 47237" d="m123.629 186.649.549 2.2a.585.585 0 0 0 .568.443.585.585 0 0 0 .581-.512l.281-2.247a1.008 1.008 0 0 0-1-1.133 1.008 1.008 0 0 0-.979 1.249z" transform="translate(989.372 374.21)" style="fill:#e6af78"/>
        <path data-name="Path 47238" d="M304.031 494.346h-3.406a.487.487 0 0 0-.487.487v.487h4.379v-.487a.487.487 0 0 0-.486-.487z" transform="translate(822.564 82.292)" style="fill:#e4eaf6"/>
    </g>
</svg>
