<svg xmlns="http://www.w3.org/2000/svg" width="110.071" height="110.071" viewBox="0 0 110.071 110.071">
    <defs>
        <filter id="le1ap60nxa" x="0" y="0" width="110.071" height="110.071" filterUnits="userSpaceOnUse">
            <feOffset dy="3"/>
            <feGaussianBlur stdDeviation="3" result="blur"/>
            <feFlood flood-opacity=".161"/>
            <feComposite operator="in" in2="blur"/>
            <feComposite in="SourceGraphic"/>
        </filter>
    </defs>
    <g style="filter:url(#le1ap60nxa)">
        <path data-name="Icon" d="M0 46.035A46.088 46.088 0 0 1 46.035 0a1.874 1.874 0 0 1 0 3.748 42.288 42.288 0 1 0 42.287 42.287 41.819 41.819 0 0 0-4.677-19.353 42.659 42.659 0 0 0-12.493-14.67A1.874 1.874 0 1 1 73.38 9 46.036 46.036 0 1 1 0 46.035zm33.308 21.372V26.289a1.872 1.872 0 0 1 2.832-1.61l33.17 19.747a1.874 1.874 0 0 1 .056 3.186L46.427 62.391a1.874 1.874 0 1 1-2.027-3.15L64.794 46.1l-27.74-16.514v37.821a1.873 1.873 0 1 1-3.747 0z" transform="translate(9 6)" style="fill:#00baba"/>
    </g>
</svg>
