<svg xmlns="http://www.w3.org/2000/svg" width="25.782" height="25.782" viewBox="0 0 25.782 25.782">
  <defs>
    <style>
      .cls-1 {
        fill: #7a92af;
      }
    </style>
  </defs>
  <path id="phone-pause" class="cls-1" d="M6.764,13.862l3.685,3.686a13.106,13.106,0,0,0,6.968-6.985L13.747,6.886,20.5.122l3.423,3.423a6.356,6.356,0,0,1,1.854,4.543c0,7.826-9.99,17.815-17.815,17.815a6.363,6.363,0,0,1-4.542-1.852L0,20.627ZM4.951,22.525a4.217,4.217,0,0,0,3.015,1.219c6.73,0,15.656-8.925,15.656-15.656A4.211,4.211,0,0,0,22.4,5.074l-1.9-1.9-3.71,3.71,3.168,3.17-.266.662a15.507,15.507,0,0,1-9.119,9.108l-.654.25L6.764,16.916,3.053,20.627Z" transform="translate(0 -0.122)"/>
</svg>
