<svg xmlns="http://www.w3.org/2000/svg" width="356.91" height="397.117" viewBox="0 0 356.91 397.117">
    <g data-name="Group 11729">
        <g data-name="Path 329" style="opacity:.31;fill:#00baba">
            <path d="M121.003 282.48c-4.697 0-9.9-.379-15.461-1.127a159.903 159.903 0 0 1-18.498-3.637 162.152 162.152 0 0 1-19.95-6.527c-7.052-2.834-13.722-6.129-19.826-9.793-14.071-8.448-25.174-18.835-33.001-30.872a83.412 83.412 0 0 1-10.064-21.832C1.746 200.38.5 191.42.5 182.062c0-9.394 1.249-19.537 3.71-30.146 2.311-9.954 5.71-20.41 10.1-31.078 8.083-19.635 19.53-39.974 33.107-58.818 6.354-8.82 13.037-17.125 19.862-24.683 6.733-7.457 13.45-14.016 19.963-19.496 6.577-5.534 12.79-9.834 18.464-12.78C111.536 2.036 116.683.5 121.003.5c4.35 0 8.698.953 12.925 2.832 4.133 1.836 8.201 4.58 12.092 8.155 3.832 3.52 7.53 7.88 10.99 12.959 3.433 5.039 6.663 10.827 9.6 17.205 2.938 6.383 5.606 13.408 7.93 20.88 2.347 7.546 4.363 15.614 5.992 23.98 3.39 17.413 5.11 35.91 5.11 54.98 0 19.068-1.72 37.566-5.11 54.978-1.629 8.366-3.645 16.434-5.992 23.981-2.324 7.472-4.992 14.496-7.93 20.88-2.937 6.377-6.167 12.166-9.6 17.204-3.461 5.079-7.159 9.439-10.99 12.959-3.891 3.575-7.96 6.319-12.092 8.156-4.227 1.878-8.576 2.831-12.925 2.831z" style="stroke:none" transform="rotate(-28 205.311 -76.084)"/>
            <path d="M121.003 1c-4.239 0-9.308 1.516-15.067 4.505-5.642 2.93-11.823 7.208-18.373 12.719-6.495 5.465-13.195 12.008-19.913 19.448-6.813 7.544-13.484 15.835-19.828 24.64-13.553 18.813-24.982 39.117-33.05 58.717-4.38 10.642-7.77 21.072-10.074 31C2.244 162.602 1 172.706 1 182.062c0 9.31 1.24 18.223 3.683 26.488a82.913 82.913 0 0 0 10.003 21.702c7.785 11.972 18.834 22.307 32.84 30.715 6.08 3.65 12.727 6.934 19.755 9.758a161.644 161.644 0 0 0 19.888 6.507 159.39 159.39 0 0 0 18.44 3.626c5.54.745 10.719 1.122 15.394 1.122 4.279 0 8.56-.938 12.722-2.788 4.083-1.815 8.106-4.53 11.957-8.067 3.803-3.495 7.475-7.825 10.915-12.872 3.418-5.016 6.633-10.78 9.558-17.133 2.93-6.363 5.59-13.368 7.907-20.818 2.342-7.53 4.354-15.58 5.98-23.929 3.384-17.38 5.1-35.846 5.1-54.883 0-19.037-1.716-37.502-5.1-54.883-1.626-8.348-3.638-16.399-5.98-23.928-2.317-7.451-4.977-14.456-7.907-20.82-2.924-6.352-6.14-12.116-9.558-17.132-3.44-5.047-7.112-9.377-10.915-12.872-3.851-3.538-7.874-6.252-11.957-8.067C129.562 1.938 125.282 1 121.003 1m0-1c35.976 0 65.14 63.347 65.139 141.49 0 78.143-29.164 141.49-65.139 141.49C85.028 282.98 0 260.205 0 182.062S85.028 0 121.003 0z" style="fill:#707070;stroke:none" transform="rotate(-28 205.311 -76.084)"/>
        </g>
        <g data-name="Path 330" style="opacity:.37;fill:#00baba">
            <path d="M121.003 282.48c-4.697 0-9.9-.38-15.461-1.127a159.903 159.903 0 0 1-18.498-3.637 162.155 162.155 0 0 1-19.95-6.527c-7.052-2.834-13.722-6.13-19.826-9.793-14.071-8.448-25.174-18.835-33.001-30.872a83.41 83.41 0 0 1-10.064-21.832C1.746 200.38.5 191.42.5 182.062c0-9.394 1.249-19.537 3.71-30.146 2.311-9.954 5.71-20.41 10.1-31.078 8.083-19.635 19.53-39.974 33.107-58.818 6.354-8.82 13.037-17.125 19.862-24.684 6.733-7.456 13.45-14.015 19.963-19.495 6.577-5.534 12.79-9.834 18.464-12.78C111.536 2.036 116.684.5 121.003.5c4.35 0 8.698.953 12.925 2.831 4.133 1.837 8.201 4.581 12.092 8.156 3.832 3.52 7.53 7.88 10.99 12.959 3.434 5.039 6.663 10.827 9.6 17.205 2.938 6.383 5.606 13.408 7.93 20.88 2.347 7.546 4.363 15.614 5.993 23.98 3.39 17.412 5.11 35.91 5.11 54.979 0 19.069-1.72 37.566-5.11 54.979-1.63 8.366-3.646 16.434-5.993 23.98-2.324 7.472-4.992 14.497-7.93 20.88-2.937 6.378-6.167 12.166-9.6 17.205-3.46 5.079-7.158 9.439-10.99 12.959-3.891 3.575-7.96 6.319-12.092 8.155-4.227 1.88-8.575 2.832-12.925 2.832z" style="stroke:none" transform="rotate(-73 212.431 157.191)"/>
            <path d="M121.003 1c-4.238 0-9.308 1.516-15.067 4.505-5.642 2.93-11.823 7.208-18.373 12.719-6.495 5.465-13.195 12.008-19.913 19.448-6.813 7.544-13.484 15.835-19.828 24.64-13.553 18.813-24.982 39.117-33.05 58.717-4.38 10.642-7.77 21.072-10.074 31C2.244 162.601 1 172.706 1 182.062c0 9.31 1.24 18.223 3.683 26.488a82.912 82.912 0 0 0 10.003 21.701c7.785 11.973 18.834 22.307 32.84 30.716 6.08 3.65 12.727 6.934 19.755 9.758a161.637 161.637 0 0 0 19.888 6.507 159.387 159.387 0 0 0 18.44 3.626c5.54.744 10.719 1.122 15.394 1.122 4.28 0 8.56-.938 12.722-2.788 4.083-1.815 8.106-4.53 11.957-8.067 3.803-3.495 7.475-7.826 10.915-12.872 3.418-5.016 6.634-10.78 9.558-17.133 2.93-6.363 5.59-13.368 7.908-20.819 2.341-7.529 4.353-15.58 5.979-23.928 3.384-17.38 5.1-35.846 5.1-54.883 0-19.037-1.716-37.502-5.1-54.883-1.626-8.348-3.638-16.4-5.98-23.928-2.317-7.451-4.977-14.456-7.907-20.82-2.924-6.352-6.14-12.116-9.558-17.132-3.44-5.047-7.112-9.377-10.915-12.872-3.851-3.538-7.874-6.252-11.957-8.067C129.562 1.938 125.282 1 121.003 1m0-1c35.976 0 65.14 63.347 65.14 141.49s-29.164 141.49-65.14 141.49C85.028 282.98 0 260.204 0 182.062 0 103.919 85.028 0 121.003 0z" style="fill:#707070;stroke:none" transform="rotate(-73 212.431 157.191)"/>
        </g>
    </g>
</svg>
