<svg xmlns="http://www.w3.org/2000/svg" xmlns:xlink="http://www.w3.org/1999/xlink" width="1033" height="337" viewBox="0 0 1033 337">
  <defs>
    <filter id="Rectangle_2448" x="0" y="0" width="1033" height="337" filterUnits="userSpaceOnUse">
      <feOffset input="SourceAlpha"/>
      <feGaussianBlur stdDeviation="15" result="blur"/>
      <feFlood flood-opacity="0.161"/>
      <feComposite operator="in" in2="blur"/>
      <feComposite in="SourceGraphic"/>
    </filter>
  </defs>
  <g id="Group_1187000" data-name="Group 1187000" transform="translate(-435 -657)">
    <g id="Group_11042" data-name="Group 11042" transform="translate(480 702)">
      <g transform="matrix(1, 0, 0, 1, -45, -45)" filter="url(#Rectangle_2448)">
        <g id="Rectangle_2448-2" data-name="Rectangle 2448" transform="translate(45 45)" fill="#fff" stroke="#707070" stroke-width="0.1">
          <rect width="943" height="247" rx="20" stroke="none"/>
          <rect x="0.05" y="0.05" width="942.9" height="246.9" rx="19.95" fill="none"/>
        </g>
      </g>
      <path id="Rectangle_2449" data-name="Rectangle 2449" d="M12.35,0H524.5A123.5,123.5,0,0,1,648,123.5v0A123.5,123.5,0,0,1,524.5,247H12.35A12.35,12.35,0,0,1,0,234.65V12.35A12.35,12.35,0,0,1,12.35,0Z" fill="#fafbfd"/>
      <path id="Path_47319" data-name="Path 47319" d="M426.214,0H19.037C8.523,0,0,5.529,0,12.35v222.3C0,241.471,8.523,247,19.037,247H426.214c105.139,0,190.37-55.293,190.37-123.5,0-29.056-15.468-55.769-41.5-76.978C540.354,18.218,486.563,0,426.214,0Z" fill="#f6f7fc"/>
    </g>
    <g id="Page-1" transform="translate(1196.693 714)">
      <g id="Main-page" transform="translate(0.234)">
        <g id="Download">
          <g id="Group-10">
            <g id="Group-8">
              <ellipse id="Oval-2" cx="113" cy="112" rx="113" ry="112" transform="translate(0.072)" fill="#00baba" opacity="0.01"/>
              <ellipse id="Oval-2-2" data-name="Oval-2" cx="88" cy="87" rx="88" ry="87" transform="translate(25.072 25)" fill="#00baba" opacity="0.02"/>
              <ellipse id="Oval-2-3" data-name="Oval-2" cx="70.5" cy="68.5" rx="70.5" ry="68.5" transform="translate(42.072 43)" fill="#00baba" opacity="0.04"/>
              <ellipse id="Oval-2-4" data-name="Oval-2" cx="49" cy="50" rx="49" ry="50" transform="translate(65.073 62)" fill="#00baba" opacity="0.06"/>
            </g>
          </g>
        </g>
      </g>
    </g>
    <g id="Pattern" transform="translate(822 819)" opacity="0.196">
      <circle id="Ellipse_436" data-name="Ellipse 436" cx="1.5" cy="1.5" r="1.5" fill="#212936"/>
      <circle id="Ellipse_451" data-name="Ellipse 451" cx="1.5" cy="1.5" r="1.5" transform="translate(12)" fill="#212936"/>
      <circle id="Ellipse_437" data-name="Ellipse 437" cx="1.5" cy="1.5" r="1.5" transform="translate(0 12)" fill="#212936"/>
      <circle id="Ellipse_452" data-name="Ellipse 452" cx="1.5" cy="1.5" r="1.5" transform="translate(12 12)" fill="#212936"/>
      <circle id="Ellipse_438" data-name="Ellipse 438" cx="1.5" cy="1.5" r="1.5" transform="translate(0 24)" fill="#212936"/>
      <circle id="Ellipse_453" data-name="Ellipse 453" cx="1.5" cy="1.5" r="1.5" transform="translate(12 24)" fill="#212936"/>
      <circle id="Ellipse_439" data-name="Ellipse 439" cx="1.5" cy="1.5" r="1.5" transform="translate(0 36)" fill="#212936"/>
      <circle id="Ellipse_454" data-name="Ellipse 454" cx="1.5" cy="1.5" r="1.5" transform="translate(12 36)" fill="#212936"/>
      <circle id="Ellipse_440" data-name="Ellipse 440" cx="1.5" cy="1.5" r="1.5" transform="translate(0 48)" fill="#212936"/>
      <circle id="Ellipse_455" data-name="Ellipse 455" cx="1.5" cy="1.5" r="1.5" transform="translate(12 48)" fill="#212936"/>
      <circle id="Ellipse_586" data-name="Ellipse 586" cx="1.5" cy="1.5" r="1.5" transform="translate(12 60)" fill="#212936"/>
      <circle id="Ellipse_591" data-name="Ellipse 591" cx="1.5" cy="1.5" r="1.5" transform="translate(36 60)" fill="#212936"/>
      <circle id="Ellipse_594" data-name="Ellipse 594" cx="1.5" cy="1.5" r="1.5" transform="translate(60 60)" fill="#212936"/>
      <circle id="Ellipse_597" data-name="Ellipse 597" cx="1.5" cy="1.5" r="1.5" transform="translate(72 60)" fill="#212936"/>
      <circle id="Ellipse_587" data-name="Ellipse 587" cx="1.5" cy="1.5" r="1.5" transform="translate(12 72)" fill="#212936"/>
      <circle id="Ellipse_589" data-name="Ellipse 589" cx="1.5" cy="1.5" r="1.5" transform="translate(36 72)" fill="#212936"/>
      <circle id="Ellipse_595" data-name="Ellipse 595" cx="1.5" cy="1.5" r="1.5" transform="translate(60 72)" fill="#212936"/>
      <circle id="Ellipse_598" data-name="Ellipse 598" cx="1.5" cy="1.5" r="1.5" transform="translate(72 72)" fill="#212936"/>
      <circle id="Ellipse_441" data-name="Ellipse 441" cx="1.5" cy="1.5" r="1.5" transform="translate(0 60)" fill="#212936"/>
      <circle id="Ellipse_592" data-name="Ellipse 592" cx="1.5" cy="1.5" r="1.5" transform="translate(24 60)" fill="#212936"/>
      <circle id="Ellipse_593" data-name="Ellipse 593" cx="1.5" cy="1.5" r="1.5" transform="translate(48 60)" fill="#212936"/>
      <circle id="Ellipse_588" data-name="Ellipse 588" cx="1.5" cy="1.5" r="1.5" transform="translate(0 72)" fill="#212936"/>
      <circle id="Ellipse_590" data-name="Ellipse 590" cx="1.5" cy="1.5" r="1.5" transform="translate(24 72)" fill="#212936"/>
      <circle id="Ellipse_596" data-name="Ellipse 596" cx="1.5" cy="1.5" r="1.5" transform="translate(48 72)" fill="#212936"/>
    </g>
  </g>
</svg>
