<svg
  xmlns="http://www.w3.org/2000/svg"
  width="22.23"
  height="23.455"
  viewBox="0 0 22.23 23.455"
>
  <defs>
    <style>
      .cls-1 {
        fill: #bfc3c7;
      }

      .cls-2 {
        fill: #bcbccb;
      }
    </style>
  </defs>
  <g
    id="Group_11567"
    src-name="Group 11567"
    transform="translate(-1457.914 -46.012)"
  >
    <path
      id="Path_365"
      src-name="Path 365"
      class="cls-1"
      d="M9.031,0C4.043,0,0,3.421,0,7.642A6.772,6.772,0,0,0,1.389,11.7v4.971l3.75-2.142a10.356,10.356,0,0,0,3.892.753c4.988,0,9.031-3.421,9.031-7.642S14.019,0,9.031,0Z"
      transform="translate(1457.914 46.012)"
    />
    <path
      id="Path_366"
      src-name="Path 366"
      class="cls-2"
      d="M19.818,10.528a5.267,5.267,0,0,0-1.594-3.667c-1.013,4.845-5.826,8.53-11.606,8.53-.143,0-.281-.025-.424-.029a10.126,10.126,0,0,0,5.287,1.419,11.067,11.067,0,0,0,1.816-.153l5.131,2.932V14h-.017A5.194,5.194,0,0,0,19.818,10.528Z"
      transform="translate(1460.326 49.908)"
    />
  </g>
</svg>
