<svg
  xmlns="http://www.w3.org/2000/svg"
  width="75"
  height="129"
  viewBox="0 0 75 129"
>
  <defs>
    <style>
      .cls-1 {
        opacity: 0.6;
      }

      .cls-2 {
        fill: #cfdce4;
      }
    </style>
  </defs>
  <g
    id="Group_2959"
    src-name="Group 2959"
    class="cls-1"
    transform="translate(-9 -170)"
  >
    <circle
      id="Ellipse_609"
      src-name="Ellipse 609"
      class="cls-2"
      cx="1.5"
      cy="1.5"
      r="1.5"
      transform="translate(9 170)"
    />
    <circle
      id="Ellipse_610"
      src-name="Ellipse 610"
      class="cls-2"
      cx="1.5"
      cy="1.5"
      r="1.5"
      transform="translate(27 170)"
    />
    <circle
      id="Ellipse_611"
      src-name="Ellipse 611"
      class="cls-2"
      cx="1.5"
      cy="1.5"
      r="1.5"
      transform="translate(45 170)"
    />
    <circle
      id="Ellipse_612"
      src-name="Ellipse 612"
      class="cls-2"
      cx="1.5"
      cy="1.5"
      r="1.5"
      transform="translate(63 170)"
    />
    <circle
      id="Ellipse_613"
      src-name="Ellipse 613"
      class="cls-2"
      cx="1.5"
      cy="1.5"
      r="1.5"
      transform="translate(81 170)"
    />
    <circle
      id="Ellipse_617"
      src-name="Ellipse 617"
      class="cls-2"
      cx="1.5"
      cy="1.5"
      r="1.5"
      transform="translate(9 188)"
    />
    <circle
      id="Ellipse_618"
      src-name="Ellipse 618"
      class="cls-2"
      cx="1.5"
      cy="1.5"
      r="1.5"
      transform="translate(27 188)"
    />
    <circle
      id="Ellipse_619"
      src-name="Ellipse 619"
      class="cls-2"
      cx="1.5"
      cy="1.5"
      r="1.5"
      transform="translate(45 188)"
    />
    <circle
      id="Ellipse_620"
      src-name="Ellipse 620"
      class="cls-2"
      cx="1.5"
      cy="1.5"
      r="1.5"
      transform="translate(63 188)"
    />
    <circle
      id="Ellipse_621"
      src-name="Ellipse 621"
      class="cls-2"
      cx="1.5"
      cy="1.5"
      r="1.5"
      transform="translate(81 188)"
    />
    <circle
      id="Ellipse_625"
      src-name="Ellipse 625"
      class="cls-2"
      cx="1.5"
      cy="1.5"
      r="1.5"
      transform="translate(9 206)"
    />
    <circle
      id="Ellipse_626"
      src-name="Ellipse 626"
      class="cls-2"
      cx="1.5"
      cy="1.5"
      r="1.5"
      transform="translate(27 206)"
    />
    <circle
      id="Ellipse_627"
      src-name="Ellipse 627"
      class="cls-2"
      cx="1.5"
      cy="1.5"
      r="1.5"
      transform="translate(45 206)"
    />
    <circle
      id="Ellipse_628"
      src-name="Ellipse 628"
      class="cls-2"
      cx="1.5"
      cy="1.5"
      r="1.5"
      transform="translate(63 206)"
    />
    <circle
      id="Ellipse_629"
      src-name="Ellipse 629"
      class="cls-2"
      cx="1.5"
      cy="1.5"
      r="1.5"
      transform="translate(81 206)"
    />
    <circle
      id="Ellipse_633"
      src-name="Ellipse 633"
      class="cls-2"
      cx="1.5"
      cy="1.5"
      r="1.5"
      transform="translate(9 224)"
    />
    <circle
      id="Ellipse_634"
      src-name="Ellipse 634"
      class="cls-2"
      cx="1.5"
      cy="1.5"
      r="1.5"
      transform="translate(27 224)"
    />
    <circle
      id="Ellipse_635"
      src-name="Ellipse 635"
      class="cls-2"
      cx="1.5"
      cy="1.5"
      r="1.5"
      transform="translate(45 224)"
    />
    <circle
      id="Ellipse_636"
      src-name="Ellipse 636"
      class="cls-2"
      cx="1.5"
      cy="1.5"
      r="1.5"
      transform="translate(63 224)"
    />
    <circle
      id="Ellipse_637"
      src-name="Ellipse 637"
      class="cls-2"
      cx="1.5"
      cy="1.5"
      r="1.5"
      transform="translate(81 224)"
    />
    <circle
      id="Ellipse_641"
      src-name="Ellipse 641"
      class="cls-2"
      cx="1.5"
      cy="1.5"
      r="1.5"
      transform="translate(9 242)"
    />
    <circle
      id="Ellipse_642"
      src-name="Ellipse 642"
      class="cls-2"
      cx="1.5"
      cy="1.5"
      r="1.5"
      transform="translate(27 242)"
    />
    <circle
      id="Ellipse_643"
      src-name="Ellipse 643"
      class="cls-2"
      cx="1.5"
      cy="1.5"
      r="1.5"
      transform="translate(45 242)"
    />
    <circle
      id="Ellipse_644"
      src-name="Ellipse 644"
      class="cls-2"
      cx="1.5"
      cy="1.5"
      r="1.5"
      transform="translate(63 242)"
    />
    <circle
      id="Ellipse_645"
      src-name="Ellipse 645"
      class="cls-2"
      cx="1.5"
      cy="1.5"
      r="1.5"
      transform="translate(81 242)"
    />
    <circle
      id="Ellipse_649"
      src-name="Ellipse 649"
      class="cls-2"
      cx="1.5"
      cy="1.5"
      r="1.5"
      transform="translate(9 260)"
    />
    <circle
      id="Ellipse_650"
      src-name="Ellipse 650"
      class="cls-2"
      cx="1.5"
      cy="1.5"
      r="1.5"
      transform="translate(27 260)"
    />
    <circle
      id="Ellipse_651"
      src-name="Ellipse 651"
      class="cls-2"
      cx="1.5"
      cy="1.5"
      r="1.5"
      transform="translate(45 260)"
    />
    <circle
      id="Ellipse_652"
      src-name="Ellipse 652"
      class="cls-2"
      cx="1.5"
      cy="1.5"
      r="1.5"
      transform="translate(63 260)"
    />
    <circle
      id="Ellipse_653"
      src-name="Ellipse 653"
      class="cls-2"
      cx="1.5"
      cy="1.5"
      r="1.5"
      transform="translate(81 260)"
    />
    <circle
      id="Ellipse_657"
      src-name="Ellipse 657"
      class="cls-2"
      cx="1.5"
      cy="1.5"
      r="1.5"
      transform="translate(9 278)"
    />
    <circle
      id="Ellipse_658"
      src-name="Ellipse 658"
      class="cls-2"
      cx="1.5"
      cy="1.5"
      r="1.5"
      transform="translate(27 278)"
    />
    <circle
      id="Ellipse_659"
      src-name="Ellipse 659"
      class="cls-2"
      cx="1.5"
      cy="1.5"
      r="1.5"
      transform="translate(45 278)"
    />
    <circle
      id="Ellipse_660"
      src-name="Ellipse 660"
      class="cls-2"
      cx="1.5"
      cy="1.5"
      r="1.5"
      transform="translate(63 278)"
    />
    <circle
      id="Ellipse_661"
      src-name="Ellipse 661"
      class="cls-2"
      cx="1.5"
      cy="1.5"
      r="1.5"
      transform="translate(81 278)"
    />
    <circle
      id="Ellipse_665"
      src-name="Ellipse 665"
      class="cls-2"
      cx="1.5"
      cy="1.5"
      r="1.5"
      transform="translate(9 296)"
    />
    <circle
      id="Ellipse_666"
      src-name="Ellipse 666"
      class="cls-2"
      cx="1.5"
      cy="1.5"
      r="1.5"
      transform="translate(27 296)"
    />
    <circle
      id="Ellipse_667"
      src-name="Ellipse 667"
      class="cls-2"
      cx="1.5"
      cy="1.5"
      r="1.5"
      transform="translate(45 296)"
    />
    <circle
      id="Ellipse_668"
      src-name="Ellipse 668"
      class="cls-2"
      cx="1.5"
      cy="1.5"
      r="1.5"
      transform="translate(63 296)"
    />
    <circle
      id="Ellipse_669"
      src-name="Ellipse 669"
      class="cls-2"
      cx="1.5"
      cy="1.5"
      r="1.5"
      transform="translate(81 296)"
    />
  </g>
</svg>
