<svg
  xmlns="http://www.w3.org/2000/svg"
  width="20.325"
  height="15.822"
  viewBox="0 0 20.325 15.822"
>
  <defs>
    <style>
      .cls-1 {
        fill: #a8acb9;
      }
    </style>
  </defs>
  <g id="fi-rr-eye" transform="translate(0.004 -2.655)">
    <path
      id="Path_27730"
      src-name="Path 27730"
      class="cls-1"
      d="M19.7,8.381a11.212,11.212,0,0,0-9.542-5.726A11.212,11.212,0,0,0,.616,8.381a4.155,4.155,0,0,0,0,4.37,11.212,11.212,0,0,0,9.542,5.726A11.212,11.212,0,0,0,19.7,12.751,4.155,4.155,0,0,0,19.7,8.381Zm-1.443,3.484a9.578,9.578,0,0,1-8.1,4.919,9.578,9.578,0,0,1-8.1-4.919,2.47,2.47,0,0,1,0-2.6,9.578,9.578,0,0,1,8.1-4.919,9.571,9.571,0,0,1,8.1,4.919A2.47,2.47,0,0,1,18.256,11.865Z"
    />
    <path
      id="Path_27731"
      src-name="Path 27731"
      class="cls-1"
      d="M11.233,7a4.233,4.233,0,1,0,4.233,4.233A4.233,4.233,0,0,0,11.233,7Zm0,6.772a2.54,2.54,0,1,1,2.54-2.54A2.54,2.54,0,0,1,11.233,13.772Z"
      transform="translate(-1.075 -0.667)"
    />
  </g>
</svg>
