<svg
  xmlns="http://www.w3.org/2000/svg"
  width="53"
  height="53"
  viewBox="0 0 53 53"
>
  <defs>
    <style>
      .cls-1 {
        fill: #fff;
      }

      .cls-2 {
        fill: #e6af78;
      }

      .cls-3 {
        fill: #eff2fa;
      }

      .cls-4 {
        fill: #d29b6e;
      }

      .cls-5 {
        fill: #f0c087;
      }

      .cls-6 {
        fill: #e4eaf6;
      }

      .cls-7 {
        fill: #5b5d6e;
      }

      .cls-8 {
        fill: #515262;
      }

      .cls-9 {
        fill: #785550;
      }

      .cls-10 {
        fill: #694b4b;
      }

      .cls-11 {
        fill: #5a4146;
      }
    </style>
  </defs>
  <g id="Group_11017" src-name="Group 11017" transform="translate(-1094 -537)">
    <circle
      id="Ellipse_1256"
      src-name="Ellipse 1256"
      class="cls-1"
      cx="26.5"
      cy="26.5"
      r="26.5"
      transform="translate(1094 537)"
    />
    <g id="boss" transform="translate(1107.617 549.387)">
      <path
        id="Path_47222"
        src-name="Path 47222"
        class="cls-2"
        d="M185.317,303.556V300.15h-8.759v3.406l4.379,3.893Z"
        transform="translate(-168.285 -283.604)"
      />
      <path
        id="Path_47223"
        src-name="Path 47223"
        class="cls-3"
        d="M50.3,362.456l-6.021-1.417a.965.965,0,0,1-.253-.1l-4.877,2.845L34.46,360.8a.97.97,0,0,1-.443.239L28,362.456a1.946,1.946,0,0,0-1.5,1.895v3.811a.973.973,0,0,0,.973.973H50.825a.973.973,0,0,0,.973-.973v-3.811A1.946,1.946,0,0,0,50.3,362.456Z"
        transform="translate(-26.494 -340.911)"
      />
      <path
        id="Path_47224"
        src-name="Path 47224"
        class="cls-4"
        d="M176.558,300.149v3.594c5.517,1.988,8.759-2.987,8.759-2.987v-.607h-8.759Z"
        transform="translate(-168.285 -283.603)"
      />
      <path
        id="Path_47225"
        src-name="Path 47225"
        class="cls-5"
        d="M141.249,97.127l.424,9.329a2.92,2.92,0,0,0,1.165,2.2l2.012,1.509a2.92,2.92,0,0,0,1.752.584h1.946a2.92,2.92,0,0,0,1.752-.584l2.012-1.509a2.92,2.92,0,0,0,1.165-2.2l.424-9.329Z"
        transform="translate(-134.922 -91.773)"
      />
      <path
        id="Path_47226"
        src-name="Path 47226"
        class="cls-2"
        d="M146.115,99.072c1.946,0,4.866-.487,5.558-1.946H141.249l.424,9.329a2.92,2.92,0,0,0,1.165,2.2l2.012,1.509a2.92,2.92,0,0,0,1.752.584h.973c-.973,0-2.92-1.946-2.92-4.379v-5.839A1.554,1.554,0,0,1,146.115,99.072Z"
        transform="translate(-134.922 -91.772)"
      />
      <g
        id="Group_10891"
        src-name="Group 10891"
        transform="translate(0.001 22.234)"
      >
        <path
          id="Path_47227"
          src-name="Path 47227"
          class="cls-6"
          d="M30.07,406.164l-3.153-2.832a1.943,1.943,0,0,0-.419,1.206v3.811a.973.973,0,0,0,.973.973h3.406v-1.348A2.433,2.433,0,0,0,30.07,406.164Z"
          transform="translate(-26.498 -403.332)"
        />
        <path
          id="Path_47228"
          src-name="Path 47228"
          class="cls-6"
          d="M406.87,406.164l3.153-2.832a1.943,1.943,0,0,1,.419,1.206v3.811a.973.973,0,0,1-.973.973h-3.406v-1.348A2.433,2.433,0,0,1,406.87,406.164Z"
          transform="translate(-385.139 -403.332)"
        />
      </g>
      <path
        id="Path_47229"
        src-name="Path 47229"
        class="cls-7"
        d="M236.367,436.935h-2.433l.3-4.379h1.825Z"
        transform="translate(-222.498 -408.711)"
      />
      <path
        id="Path_47230"
        src-name="Path 47230"
        class="cls-8"
        d="M236.367,414.9h-2.433v.916a.544.544,0,0,0,.544.544h1.345a.544.544,0,0,0,.544-.544V414.9Z"
        transform="translate(-222.498 -392.031)"
      />
      <g
        id="Group_10892"
        src-name="Group 10892"
        transform="translate(6.813 18.744)"
      >
        <path
          id="Path_47231"
          src-name="Path 47231"
          class="cls-6"
          d="M151.469,340.145l4.448,4a16.784,16.784,0,0,0-2.783,1.9.624.624,0,0,1-.967-.219l-2.09-4.6.661-.992A.487.487,0,0,1,151.469,340.145Z"
          transform="translate(-150.078 -340.021)"
        />
        <path
          id="Path_47232"
          src-name="Path 47232"
          class="cls-6"
          d="M260.45,340.145l-4.448,4a16.784,16.784,0,0,1,2.783,1.9.624.624,0,0,0,.967-.219l2.09-4.6-.661-.992A.487.487,0,0,0,260.45,340.145Z"
          transform="translate(-250.163 -340.021)"
        />
      </g>
      <path
        id="Path_47233"
        src-name="Path 47233"
        class="cls-9"
        d="M309.516,33.465l.456,3.224c2.082.416,2.382,3.684,2.426,4.618a.959.959,0,0,0,.154.475l.794,1.232a4.662,4.662,0,0,1,.973-3.406S314.747,31.519,309.516,33.465Z"
        transform="translate(-293.914 -31.335)"
      />
      <path
        id="Path_47234"
        src-name="Path 47234"
        class="cls-5"
        d="M353.8,186.649l-.549,2.2a.585.585,0,0,1-.568.443h0a.585.585,0,0,1-.581-.512l-.281-2.247a1.008,1.008,0,0,1,1-1.133h0A1.008,1.008,0,0,1,353.8,186.649Z"
        transform="translate(-333.884 -175.177)"
      />
      <path
        id="Path_47235"
        src-name="Path 47235"
        class="cls-10"
        d="M115.921,1.259l.72.492C113.387,4.154,114,8.275,114,8.275c.973.973.973,3.406.973,3.406l.973-.973s-.376-2.811,1.46-3.893c1.7-1,3.193-.487,4.714-.487,4.075,0,5.216-1.536,5.018-3.406-.1-.968-1.582-2.984-5.353-2.92A16.383,16.383,0,0,0,115.921,1.259Z"
        transform="translate(-109.129 -0.001)"
      />
      <path
        id="Path_47236"
        src-name="Path 47236"
        class="cls-11"
        d="M115.637,35.9a5.345,5.345,0,0,1,1-4.151c-3.254,2.4-2.646,6.523-2.646,6.523.973.973.973,3.406.973,3.406l.973-.973s-.376-2.811,1.46-3.893c1.7-1,3.193-.487,4.714-.487a11.955,11.955,0,0,0,1.755-.12C120.732,36.313,118.882,33.936,115.637,35.9Z"
        transform="translate(-109.129 -30.001)"
      />
      <path
        id="Path_47237"
        src-name="Path 47237"
        class="cls-2"
        d="M123.629,186.649l.549,2.2a.585.585,0,0,0,.568.443h0a.585.585,0,0,0,.581-.512l.281-2.247a1.008,1.008,0,0,0-1-1.133h0A1.008,1.008,0,0,0,123.629,186.649Z"
        transform="translate(-118.245 -175.177)"
      />
      <path
        id="Path_47238"
        src-name="Path 47238"
        class="cls-6"
        d="M304.031,494.346h-3.406a.487.487,0,0,0-.487.487v.487h4.379v-.487A.487.487,0,0,0,304.031,494.346Z"
        transform="translate(-285.053 -467.095)"
      />
    </g>
  </g>
</svg>
