<svg xmlns="http://www.w3.org/2000/svg" width="24" height="22" viewBox="0 0 24 22">
  <defs>
    <style>
      .cls-1 {
        fill: #fff;
      }
    </style>
  </defs>
  <path id="money-check-edit" class="cls-1" d="M14,11h3.1a4.983,4.983,0,0,0-.569.465L15,13H14V11Zm-2,3a2.762,2.762,0,0,0-2.315-2.733L6.644,10.76A.768.768,0,0,1,6,10,1,1,0,0,1,7,9H9a1,1,0,0,1,1,1h2A3,3,0,0,0,9,7V6H7V7a3,3,0,0,0-3,3,2.762,2.762,0,0,0,2.315,2.733l3.041.507A.768.768,0,0,1,10,14a1,1,0,0,1-1,1H7a1,1,0,0,1-1-1H4a3,3,0,0,0,3,3v1H9V17A3,3,0,0,0,12,14ZM21,2H3A3,3,0,0,0,0,5V22H9V20H2V5A1,1,0,0,1,3,4H21a1,1,0,0,1,1,1V9.107a4.959,4.959,0,0,1,2,.921V5A3,3,0,0,0,21,2ZM20,7H14V9h6Zm3.121,4.879a3,3,0,0,1,0,4.243L15.242,24H11V19.757l7.879-7.878A3,3,0,0,1,23.121,11.879ZM22,14a1,1,0,0,0-1.707-.707L13,20.585V22h1.414l7.293-7.293A.993.993,0,0,0,22,14Z" transform="translate(0 -2)"/>
</svg>
