<svg
  xmlns="http://www.w3.org/2000/svg"
  width="17.456"
  height="20.947"
  viewBox="0 0 17.456 20.947"
>
  <defs>
    <style>
      .cls-1 {
        fill: #a8acb9;
      }
    </style>
  </defs>
  <g id="fi-rr-lock" transform="translate(-2)">
    <path
      id="Path_27730"
      src-name="Path 27730"
      class="cls-1"
      d="M16.838,7.352V6.11a6.11,6.11,0,1,0-12.219,0V7.352A4.364,4.364,0,0,0,2,11.346v5.237a4.369,4.369,0,0,0,4.364,4.364h8.728a4.369,4.369,0,0,0,4.364-4.364V11.346A4.364,4.364,0,0,0,16.838,7.352ZM6.364,6.11a4.364,4.364,0,0,1,8.728,0v.873H6.364ZM17.71,16.583A2.618,2.618,0,0,1,15.092,19.2H6.364a2.618,2.618,0,0,1-2.618-2.618V11.346A2.618,2.618,0,0,1,6.364,8.728h8.728a2.618,2.618,0,0,1,2.618,2.618Z"
    />
    <path
      id="Path_27731"
      src-name="Path 27731"
      class="cls-1"
      d="M11.873,14a.873.873,0,0,0-.873.873v1.746a.873.873,0,0,0,1.746,0V14.873A.873.873,0,0,0,11.873,14Z"
      transform="translate(-1.145 -1.781)"
    />
  </g>
</svg>
