<svg
  xmlns="http://www.w3.org/2000/svg"
  width="18"
  height="24"
  viewBox="0 0 18 24"
>
  <defs>
    <style>
      .cls-1 {
        fill: #131523;
      }
    </style>
  </defs>
  <g id="_01_align_center" src-name="01 align center" transform="translate(-3)">
    <path
      id="Path_47504"
      src-name="Path 47504"
      class="cls-1"
      d="M21,24H19V18.957A2.96,2.96,0,0,0,16.043,16H7.957A2.96,2.96,0,0,0,5,18.957V24H3V18.957A4.963,4.963,0,0,1,7.957,14h8.086A4.963,4.963,0,0,1,21,18.957Z"
    />
    <path
      id="Path_47505"
      src-name="Path 47505"
      class="cls-1"
      d="M12,12a6,6,0,1,1,6-6A6,6,0,0,1,12,12ZM12,2a4,4,0,1,0,4,4A4,4,0,0,0,12,2Z"
    />
  </g>
</svg>
