<svg xmlns="http://www.w3.org/2000/svg" width="18.401" height="18.401" viewBox="0 0 18.401 18.401">
  <defs>
    <style>
      .cls-1 {
        fill: #7e84a3;
      }
    </style>
  </defs>
  <g id="icon_search" transform="translate(0)">
    <path id="icon_search-2" data-name="icon_search" class="cls-1" d="M3.8,12.915a7.794,7.794,0,0,1-1.61-4.8A8.073,8.073,0,0,1,10.236,0,8.172,8.172,0,0,1,18.4,8.115a8.172,8.172,0,0,1-8.166,8.115,7.667,7.667,0,0,1-4.83-1.6l-3.45,3.429a1.246,1.246,0,0,1-.805.343,1.246,1.246,0,0,1-.805-.343,1.1,1.1,0,0,1,0-1.6Zm6.44.914A5.775,5.775,0,0,0,16.1,8.115a5.866,5.866,0,0,0-11.731,0A5.775,5.775,0,0,0,10.236,13.83Z" transform="translate(0)"/>
  </g>
</svg>
