<svg
  xmlns="http://www.w3.org/2000/svg"
  width="53"
  height="53"
  viewBox="0 0 53 53"
>
  <defs>
    <style>
      .cls-1 {
        fill: #e5e7ec;
      }

      .cls-2 {
        fill: #40596b;
      }

      .cls-3 {
        fill: #f8b64c;
      }

      .cls-4 {
        fill: #ffd15c;
      }

      .cls-5 {
        fill: #84dbff;
      }

      .cls-6 {
        fill: #ff7058;
      }

      .cls-7 {
        fill: #cdd6e0;
      }

      .cls-8 {
        fill: #f2f2f2;
      }

      .cls-9 {
        fill: #acb3ba;
      }
    </style>
  </defs>
  <g id="Group_11018" src-name="Group 11018" transform="translate(-1094 -537)">
    <circle
      id="Ellipse_1256"
      src-name="Ellipse 1256"
      class="cls-1"
      cx="26.5"
      cy="26.5"
      r="26.5"
      transform="translate(1094 537)"
    />
    <g id="girl" transform="translate(1107.191 550.218)">
      <path
        id="Path_47239"
        src-name="Path 47239"
        class="cls-2"
        d="M108.789,64.99c-.166-1.439.277-1.882.111-3.32s-.553-1-.719-2.435-.885-1.882-1.051-3.32c-.221-1.328-.775-1.107-1.217-2.048H95.951c-.443,1-1.051.775-1.162,2.048-.166,1.439-.885,1.882-1.051,3.32s-.553,1-.719,2.435.277,1.882.111,3.32-.553,1-.719,2.435.664,1.051,1.439,2.048c.885,1.217.553,2.49,1.771,2.49,1.273,0,1.273-2.878,2.49-2.878,1.273,0,1.273,2.878,2.49,2.878.111,0,.221-.055.332-.055a.7.7,0,0,0,.332.055c1.273,0,1.273-2.878,2.49-2.878,1.273,0,1.273,2.878,2.49,2.878,1.273,0,.885-1.328,1.771-2.49.775-1,1.6-.609,1.439-2.048C109.342,65.986,108.9,66.429,108.789,64.99Z"
        transform="translate(-87.594 -51.1)"
      />
      <path
        id="Path_47240"
        src-name="Path 47240"
        class="cls-3"
        d="M188.236,292.05v3.32l-.609,1.66-1.992,5.146h-2.767l-1.992-5.146-.609-1.66.941-3.652.111-.055v-1h5.866v1Z"
        transform="translate(-170.915 -275.615)"
      />
      <path
        id="Path_47241"
        src-name="Path 47241"
        class="cls-4"
        d="M148.062,25.553c-1.716,6.364-5.811,6.807-5.811,6.807s-4.1-.5-5.811-6.807c0,0-.941-.719-.166-3.486,0,0,.443-5.534,5.977-5.534,5.479,0,5.977,5.534,5.977,5.534C149,24.834,148.062,25.553,148.062,25.553Z"
        transform="translate(-128.915 -15.703)"
      />
      <path
        id="Path_47242"
        src-name="Path 47242"
        class="cls-5"
        d="M165.292,384.533v6.641H154.667v-6.641l.277.277a7.125,7.125,0,0,0,1.66,1.217c.055,0,.055,0,.055.055a6.16,6.16,0,0,0,.885.387,7.029,7.029,0,0,0,4.759,0,6.159,6.159,0,0,0,.885-.387.054.054,0,0,0,.055-.055,7.125,7.125,0,0,0,1.66-1.217C165.071,384.7,165.181,384.588,165.292,384.533Z"
        transform="translate(-146.643 -364.611)"
      />
      <path
        id="Path_47243"
        src-name="Path 47243"
        class="cls-6"
        d="M165.292,384.533v6.641H154.667v-6.641l.277.277a7.125,7.125,0,0,0,1.66,1.217c.055,0,.055,0,.055.055a6.16,6.16,0,0,0,.885.387,7.029,7.029,0,0,0,4.759,0,6.159,6.159,0,0,0,.885-.387.054.054,0,0,0,.055-.055,7.125,7.125,0,0,0,1.66-1.217C165.071,384.7,165.181,384.588,165.292,384.533Z"
        transform="translate(-146.643 -364.611)"
      />
      <g
        id="Group_10893"
        src-name="Group 10893"
        transform="translate(0 16.989)"
      >
        <path
          id="Path_47244"
          src-name="Path 47244"
          class="cls-7"
          d="M10.072,332.427l1.937,5.146H0V333.2a2.309,2.309,0,0,1,1.217-1.992L7.692,328l1.051,1.217.5,1.384Z"
          transform="translate(0 -328)"
        />
        <path
          id="Path_47245"
          src-name="Path 47245"
          class="cls-7"
          d="M284.6,332.427l-1.937,5.146H294.62V333.2a2.309,2.309,0,0,0-1.217-1.992L286.928,328l-1.051,1.217-.5,1.384Z"
          transform="translate(-268.002 -328)"
        />
      </g>
      <path
        id="Path_47246"
        src-name="Path 47246"
        class="cls-8"
        d="M184.591,403.219a.054.054,0,0,0-.055.055,6.153,6.153,0,0,1-.885.387,7.029,7.029,0,0,1-4.759,0,4.287,4.287,0,0,1-.885-.387.054.054,0,0,1-.055-.055c-.332-.166-.609-.387-.885-.553v.553a7.758,7.758,0,0,0,.885.553.054.054,0,0,1,.055.055,6.149,6.149,0,0,0,.885.387,7.029,7.029,0,0,0,4.759,0,6.145,6.145,0,0,0,.885-.387.054.054,0,0,0,.055-.055c.221-.111.443-.277.664-.387v-.553A7.06,7.06,0,0,0,184.591,403.219Z"
        transform="translate(-167.879 -381.803)"
      />
      <g
        id="Group_10894"
        src-name="Group 10894"
        transform="translate(5.977 16.048)"
      >
        <path
          id="Path_47247"
          src-name="Path 47247"
          class="cls-9"
          d="M121.564,320.381h-1.882l-4.482-4.538,2.712-2.158-1.882-1.051.941-1.826,2.6-.941h0a15.016,15.016,0,0,0-.221,2.269A16.031,16.031,0,0,0,121.564,320.381Z"
          transform="translate(-115.2 -309.867)"
        />
        <path
          id="Path_47248"
          src-name="Path 47248"
          class="cls-9"
          d="M276.267,320.381h1.882l4.482-4.538-2.712-2.158,1.826-1.051-.941-1.826-2.6-.941h0a15.016,15.016,0,0,1,.221,2.269A15.462,15.462,0,0,1,276.267,320.381Z"
          transform="translate(-267.911 -309.867)"
        />
      </g>
      <g id="Group_10895" src-name="Group 10895" transform="translate(6.973 0)">
        <path
          id="Path_47249"
          src-name="Path 47249"
          class="cls-2"
          d="M145.689,7.063c.443-.166.941-.332,1.383-.5h0A6.049,6.049,0,0,0,141.207.533h-.941A6.037,6.037,0,0,0,134.4,6.51h0c.443.166.941.332,1.383.5h9.906Z"
          transform="translate(-134.4 -0.533)"
        />
        <rect
          id="Rectangle_2398"
          src-name="Rectangle 2398"
          class="cls-2"
          width="12.562"
          height="1.826"
          transform="translate(0.111 5.257)"
        />
      </g>
      <g
        id="Group_10896"
        src-name="Group 10896"
        transform="translate(9.795 5.202)"
      >
        <path
          id="Path_47250"
          src-name="Path 47250"
          class="cls-4"
          d="M189.353,114.027H188.8l.553-1.494Z"
          transform="translate(-188.8 -111.924)"
        />
        <path
          id="Path_47251"
          src-name="Path 47251"
          class="cls-4"
          d="M208.83,102.9H208l.83-2.1Z"
          transform="translate(-207.004 -100.8)"
        />
      </g>
    </g>
  </g>
</svg>
