<svg xmlns="http://www.w3.org/2000/svg" width="27.359" height="27.358" viewBox="0 0 27.359 27.358">
  <path id="fi-rr-pencil" d="M22.853,1.148a3.626,3.626,0,0,0-5.124,0L1.465,17.412A4.968,4.968,0,0,0,0,20.947V23a1,1,0,0,0,1,1H3.053a4.966,4.966,0,0,0,3.535-1.464L22.853,6.271a3.626,3.626,0,0,0,0-5.123ZM5.174,21.122A3.022,3.022,0,0,1,3.053,22H2V20.947a2.98,2.98,0,0,1,.879-2.121L15.222,6.483l2.3,2.3ZM21.438,4.857,18.932,7.364l-2.3-2.3,2.507-2.507a1.625,1.625,0,0,1,2.3,2.3Z" transform="translate(-0.014 3.654) rotate(-9)" fill="#7e84a3"/>
</svg>
