<svg
  xmlns="http://www.w3.org/2000/svg"
  width="14.894"
  height="19.858"
  viewBox="0 0 14.894 19.858"
>
  <defs>
    <style>
      .cls-1 {
        fill: #a8acb9;
      }
    </style>
  </defs>
  <g id="fi-rr-user" transform="translate(-3)">
    <path
      id="Path_27732"
      src-name="Path 27732"
      class="cls-1"
      d="M10.965,9.929A4.965,4.965,0,1,0,6,4.965a4.965,4.965,0,0,0,4.965,4.965Zm0-8.274a3.31,3.31,0,1,1-3.31,3.31,3.31,3.31,0,0,1,3.31-3.31Z"
      transform="translate(-0.518)"
    />
    <path
      id="Path_27733"
      src-name="Path 27733"
      class="cls-1"
      d="M10.447,14A7.455,7.455,0,0,0,3,21.447a.827.827,0,1,0,1.655,0,5.792,5.792,0,0,1,11.584,0,.827.827,0,0,0,1.655,0A7.455,7.455,0,0,0,10.447,14Z"
      transform="translate(0 -2.416)"
    />
  </g>
</svg>
