<svg xmlns="http://www.w3.org/2000/svg" width="16.917" height="16.917" viewBox="0 0 16.917 16.917">
  <defs>
    <style>
      .cls-1 {
        fill: #00baba;
      }
    </style>
  </defs>
  <path id="fi-rr-plus-small" class="cls-1" d="M21.507,13.049H15.868V7.41A1.41,1.41,0,0,0,14.458,6h0a1.41,1.41,0,0,0-1.41,1.41v5.639H7.41A1.41,1.41,0,0,0,6,14.458H6a1.41,1.41,0,0,0,1.41,1.41h5.639v5.639a1.41,1.41,0,0,0,1.41,1.41h0a1.41,1.41,0,0,0,1.41-1.41V15.868h5.639a1.41,1.41,0,0,0,1.41-1.41h0A1.41,1.41,0,0,0,21.507,13.049Z" transform="translate(-6 -6)"/>
</svg>
