<svg
  xmlns="http://www.w3.org/2000/svg"
  width="45.24"
  height="45.241"
  viewBox="0 0 45.24 45.241"
>
  <defs>
    <style>
      .cls-1 {
        fill: #00baba;
      }

      .cls-2 {
        fill: #e6af78;
      }

      .cls-3 {
        fill: #eff2fa;
      }

      .cls-4 {
        fill: #d29b6e;
      }

      .cls-5 {
        fill: #f0c087;
      }

      .cls-6 {
        fill: #e4eaf6;
      }

      .cls-7 {
        fill: #5b5d6e;
      }

      .cls-8 {
        fill: #515262;
      }

      .cls-9 {
        fill: #785550;
      }

      .cls-10 {
        fill: #694b4b;
      }

      .cls-11 {
        fill: #5a4146;
      }
    </style>
  </defs>
  <g id="Group_11601" src-name="Group 11601" transform="translate(-6.381 -31)">
    <path
      id="unnamed"
      class="cls-1"
      d="M22.62,0A22.621,22.621,0,1,1,0,22.621,22.62,22.62,0,0,1,22.62,0Z"
      transform="translate(6.381 31)"
    />
    <g id="boss" transform="translate(17.275 38.921)">
      <path
        id="Path_47227"
        src-name="Path 47227"
        class="cls-2"
        d="M184.675,303.307V300.15h-8.117v3.157l4.059,3.608Z"
        transform="translate(-168.892 -284.815)"
      />
      <path
        id="Path_47228"
        src-name="Path 47228"
        class="cls-3"
        d="M48.555,362.335l-5.58-1.313a.894.894,0,0,1-.234-.094l-4.52,2.637L33.877,360.8a.9.9,0,0,1-.411.222l-5.58,1.313a1.8,1.8,0,0,0-1.391,1.756v3.532a.9.9,0,0,0,.9.9H49.044a.9.9,0,0,0,.9-.9v-3.532A1.8,1.8,0,0,0,48.555,362.335Z"
        transform="translate(-26.496 -342.367)"
      />
      <path
        id="Path_47229"
        src-name="Path 47229"
        class="cls-4"
        d="M176.558,300.149v3.331c5.113,1.842,8.117-2.768,8.117-2.768v-.562Z"
        transform="translate(-168.892 -284.814)"
      />
      <path
        id="Path_47230"
        src-name="Path 47230"
        class="cls-5"
        d="M141.249,97.127l.393,8.646a2.706,2.706,0,0,0,1.08,2.042l1.865,1.4a2.706,2.706,0,0,0,1.624.541h1.8a2.706,2.706,0,0,0,1.624-.541l1.865-1.4a2.706,2.706,0,0,0,1.08-2.042l.393-8.646Z"
        transform="translate(-135.387 -92.165)"
      />
      <path
        id="Path_47231"
        src-name="Path 47231"
        class="cls-2"
        d="M145.759,98.93c1.8,0,4.51-.451,5.152-1.8h-9.661l.393,8.646a2.706,2.706,0,0,0,1.08,2.042l1.865,1.4a2.706,2.706,0,0,0,1.624.541h.9c-.9,0-2.706-1.8-2.706-4.059v-5.412A1.44,1.44,0,0,1,145.759,98.93Z"
        transform="translate(-135.387 -92.164)"
      />
      <g
        id="Group_11556"
        src-name="Group 11556"
        transform="translate(-0.001 20.606)"
      >
        <path
          id="Path_47232"
          src-name="Path 47232"
          class="cls-6"
          d="M29.809,405.957l-2.922-2.625a1.8,1.8,0,0,0-.388,1.118v3.532a.9.9,0,0,0,.9.9h3.157v-1.249A2.255,2.255,0,0,0,29.809,405.957Z"
          transform="translate(-26.498 -403.332)"
        />
        <path
          id="Path_47233"
          src-name="Path 47233"
          class="cls-6"
          d="M406.811,405.957l2.922-2.625a1.8,1.8,0,0,1,.388,1.118v3.532a.9.9,0,0,1-.9.9h-3.157v-1.249A2.255,2.255,0,0,1,406.811,405.957Z"
          transform="translate(-386.671 -403.332)"
        />
      </g>
      <path
        id="Path_47234"
        src-name="Path 47234"
        class="cls-7"
        d="M236.189,436.615h-2.255l.282-4.059h1.691Z"
        transform="translate(-223.337 -410.457)"
      />
      <path
        id="Path_47235"
        src-name="Path 47235"
        class="cls-8"
        d="M236.189,414.9h-2.255v.849a.5.5,0,0,0,.5.5h1.246a.5.5,0,0,0,.5-.5V414.9Z"
        transform="translate(-223.337 -393.705)"
      />
      <g
        id="Group_11557"
        src-name="Group 11557"
        transform="translate(6.313 17.372)"
      >
        <path
          id="Path_47236"
          src-name="Path 47236"
          class="cls-6"
          d="M151.368,340.136l4.122,3.71a15.555,15.555,0,0,0-2.579,1.757.579.579,0,0,1-.9-.2l-1.937-4.261.613-.919A.451.451,0,0,1,151.368,340.136Z"
          transform="translate(-150.078 -340.021)"
        />
        <path
          id="Path_47237"
          src-name="Path 47237"
          class="cls-6"
          d="M260.124,340.136,256,343.846a15.554,15.554,0,0,1,2.579,1.757.579.579,0,0,0,.9-.2l1.937-4.261-.613-.919A.451.451,0,0,0,260.124,340.136Z"
          transform="translate(-250.59 -340.021)"
        />
      </g>
      <path
        id="Path_47238"
        src-name="Path 47238"
        class="cls-9"
        d="M309.516,33.443l.423,2.988c1.93.386,2.208,3.415,2.248,4.28a.89.89,0,0,0,.143.441l.736,1.142a4.321,4.321,0,0,1,.9-3.157S314.364,31.639,309.516,33.443Z"
        transform="translate(-295.057 -31.469)"
      />
      <path
        id="Path_47239"
        src-name="Path 47239"
        class="cls-5"
        d="M353.659,186.558l-.509,2.036a.542.542,0,0,1-.526.411h0a.542.542,0,0,1-.538-.475l-.26-2.083a.934.934,0,0,1,.927-1.05h0A.934.934,0,0,1,353.659,186.558Z"
        transform="translate(-335.198 -175.925)"
      />
      <path
        id="Path_47240"
        src-name="Path 47240"
        class="cls-10"
        d="M115.777,1.167l.667.456a6.743,6.743,0,0,0-2.452,6.046c.9.9.9,3.157.9,3.157l.9-.9s-.348-2.606,1.353-3.608c1.578-.93,2.96-.451,4.369-.451,3.777,0,4.834-1.423,4.651-3.157-.095-.9-1.466-2.765-4.961-2.706A15.183,15.183,0,0,0,115.777,1.167Z"
        transform="translate(-109.483 -0.001)"
      />
      <path
        id="Path_47241"
        src-name="Path 47241"
        class="cls-11"
        d="M115.514,35.6a4.954,4.954,0,0,1,.93-3.847,6.743,6.743,0,0,0-2.452,6.046c.9.9.9,3.157.9,3.157l.9-.9s-.348-2.606,1.353-3.608c1.578-.93,2.96-.451,4.369-.451a11.08,11.08,0,0,0,1.626-.112C120.235,35.979,118.521,33.776,115.514,35.6Z"
        transform="translate(-109.483 -30.129)"
      />
      <path
        id="Path_47242"
        src-name="Path 47242"
        class="cls-2"
        d="M123.626,186.558l.509,2.036a.542.542,0,0,0,.526.411h0a.542.542,0,0,0,.538-.475l.26-2.083a.934.934,0,0,0-.927-1.05h0A.934.934,0,0,0,123.626,186.558Z"
        transform="translate(-118.638 -175.925)"
      />
      <path
        id="Path_47243"
        src-name="Path 47243"
        class="cls-6"
        d="M303.746,494.346h-3.157a.451.451,0,0,0-.451.451v.451H304.2V494.8A.451.451,0,0,0,303.746,494.346Z"
        transform="translate(-286.158 -469.09)"
      />
    </g>
  </g>
</svg>
