<svg xmlns="http://www.w3.org/2000/svg" width="20.489" height="22.396" viewBox="0 0 20.489 22.396">
  <path id="search-alt12" d="M7.6,7.465V5.6h7.465V7.465ZM4.8,20.529a.933.933,0,0,1-.933-.933V2.8A.933.933,0,0,1,4.8,1.866h14v8.865a6.078,6.078,0,0,1,1.866,1.232V0H4.8A2.8,2.8,0,0,0,2,2.8V19.6a2.8,2.8,0,0,0,2.8,2.8H16.464A6.042,6.042,0,0,1,12.1,20.53Zm16.37,1.826L18.69,19.876a4.232,4.232,0,1,1,1.319-1.319l2.479,2.479Zm-4.706-3.692a2.333,2.333,0,1,0-2.333-2.333A2.333,2.333,0,0,0,16.464,18.663Z" transform="translate(-2)" fill="#7e84a3"/>
</svg>
