<svg
  id="icon_search"
  xmlns="http://www.w3.org/2000/svg"
  width="23.611"
  height="23.611"
  viewBox="0 0 23.611 23.611"
>
  <defs>
    <style>
      .cls-1 {
        fill: #bfc3c7;
      }
    </style>
  </defs>
  <path
    id="icon_search-2"
    src-name="icon_search"
    class="cls-1"
    d="M4.87,16.572A10,10,0,0,1,2.8,10.412,10.359,10.359,0,0,1,13.134,0,10.485,10.485,0,0,1,23.611,10.412,10.485,10.485,0,0,1,13.134,20.825a9.838,9.838,0,0,1-6.2-2.053l-4.427,4.4a1.6,1.6,0,0,1-1.033.44,1.6,1.6,0,0,1-1.033-.44,1.412,1.412,0,0,1,0-2.053Zm8.264,1.173a7.411,7.411,0,0,0,7.526-7.333,7.526,7.526,0,0,0-15.052,0A7.411,7.411,0,0,0,13.134,17.745Z"
    transform="translate(0)"
  />
</svg>
