<svg
  xmlns="http://www.w3.org/2000/svg"
  width="28.553"
  height="31.21"
  viewBox="0 0 28.553 31.21"
>
  <path
    id="search-alt"
    d="M9.8,10.4V7.8h10.4v2.6ZM5.9,28.609a1.3,1.3,0,0,1-1.3-1.3V3.9A1.3,1.3,0,0,1,5.9,2.6H25.407V14.955a8.47,8.47,0,0,1,2.6,1.717V0H5.9A3.9,3.9,0,0,0,2,3.9V27.309a3.9,3.9,0,0,0,3.9,3.9H22.156a8.42,8.42,0,0,1-6.084-2.6Zm22.813,2.545L25.259,27.7A5.9,5.9,0,1,1,27.1,25.86l3.455,3.455Zm-6.558-5.146a3.251,3.251,0,1,0-3.251-3.251A3.251,3.251,0,0,0,22.156,26.008Z"
    transform="translate(-2)"
    fill="#fff"
  />
</svg>
