<svg
  xmlns="http://www.w3.org/2000/svg"
  width="30.21"
  height="30.21"
  viewBox="0 0 30.21 30.21"
>
  <path
    id="user-time"
    d="M10.667,13.846A6.923,6.923,0,1,1,17.59,6.923,6.923,6.923,0,0,1,10.667,13.846Zm0-11.329a4.406,4.406,0,1,0,4.406,4.406A4.406,4.406,0,0,0,10.667,2.517ZM21.4,30.21A8.811,8.811,0,1,1,30.21,21.4,8.811,8.811,0,0,1,21.4,30.21Zm0-15.1A6.294,6.294,0,1,0,27.692,21.4,6.294,6.294,0,0,0,21.4,15.1Zm3.407,7.921-2.149-2.149V17.622H20.14v4.3l2.886,2.886ZM11.262,16.364H6.294A6.3,6.3,0,0,0,0,22.657V30.21H2.517V22.657a3.776,3.776,0,0,1,3.776-3.776h4.067A11.142,11.142,0,0,1,11.262,16.364Z"
    fill="#fff"
  />
</svg>
